<svg width="24" height="24" viewBox="0 0 24 24" fill="none" xmlns="http://www.w3.org/2000/svg">
<path d="M11.9959 3.00001C13.7301 2.99765 15.3971 3.69458 16.6437 4.94316C17.8902 6.19174 18.6185 7.89387 18.674 9.68891L18.6776 9.91956V13.6995L19.907 16.6112C19.981 16.7867 20.0116 16.9785 19.9961 17.1692C19.9806 17.36 19.9195 17.5438 19.8183 17.704C19.717 17.8642 19.5789 17.9957 19.4163 18.0868C19.2537 18.1779 19.0718 18.2257 18.887 18.2258L14.6685 18.2286C14.6695 18.9491 14.399 19.6416 13.9146 20.1589C13.4303 20.6762 12.7702 20.9775 12.0747 20.9988C11.3793 21.0201 10.7032 20.7596 10.1902 20.2728C9.67721 19.786 9.36776 19.1112 9.32762 18.3919L9.32316 18.2258H5.11367C4.929 18.2258 4.74723 18.1783 4.58472 18.0874C4.42221 17.9966 4.28406 17.8654 4.18271 17.7055C4.08136 17.5456 4.01999 17.3622 4.00412 17.1716C3.98825 16.9811 4.01839 16.7895 4.09181 16.614L5.31412 13.7004V9.91956C5.31412 6.08613 8.30041 3.00001 11.9959 3.00001ZM13.3322 18.2267L10.6595 18.2286C10.6595 18.5841 10.7915 18.9259 11.0282 19.1833C11.265 19.4407 11.5883 19.5939 11.9312 19.6111C12.2741 19.6283 12.6102 19.5082 12.8698 19.2757C13.1295 19.0432 13.2928 18.7162 13.326 18.3623L13.3322 18.2267ZM11.9959 4.38392C9.03807 4.38392 6.65047 6.85097 6.65047 9.91956V13.9883L5.4531 16.8428H18.5466L17.3412 13.9892V9.93156L17.3386 9.72397C17.2918 8.2897 16.7082 6.93049 15.7111 5.93388C14.714 4.93727 13.3816 4.38142 11.9959 4.38392Z" fill="#1F1F1F"/>
</svg>
