<svg width="16" height="16" viewBox="0 0 16 16" fill="none" xmlns="http://www.w3.org/2000/svg">
<path fill-rule="evenodd" clip-rule="evenodd" d="M0.633372 0.234315C0.929723 -0.0781049 1.4102 -0.0781049 1.70655 0.234315L4.0137 2.66655C5.1987 1.9864 6.55741 1.6 7.99999 1.6C11.7388 1.6 14.9017 4.19077 15.9651 7.76031C16.0116 7.91637 16.0116 8.0837 15.9651 8.23975C15.4698 9.90226 14.5201 11.3508 13.2701 12.4248L15.3659 14.6343C15.6623 14.9467 15.6623 15.4533 15.3659 15.7657C15.0696 16.0781 14.5891 16.0781 14.2928 15.7657L0.633372 1.36569C0.33702 1.05327 0.33702 0.546734 0.633372 0.234315ZM12.1901 11.2862C13.2122 10.4478 14.002 9.31035 14.4413 8.00002C13.5036 5.20276 10.9727 3.2 7.99999 3.2C6.97937 3.2 6.01223 3.43555 5.14366 3.85778L6.4578 5.24317C6.90966 4.96183 7.43706 4.8 7.99966 4.8C9.67608 4.8 11.0351 6.23269 11.0351 8C11.0351 8.59311 10.8816 9.1491 10.6147 9.62546L12.1901 11.2862ZM9.46608 8.41456C9.49956 8.28241 9.51737 8.14348 9.51737 8C9.51737 7.11634 8.83787 6.4 7.99966 6.4C7.86356 6.4 7.73177 6.41877 7.60642 6.45407L9.46608 8.41456ZM2.40301 4.93902C2.73721 5.20564 2.8031 5.70739 2.5502 6.0597C2.13086 6.64387 1.79437 7.29707 1.55871 7.99998C2.49644 10.7972 5.02731 12.8 8.00001 12.8C8.4385 12.8 8.86666 12.7565 9.28103 12.6737C9.6928 12.5914 10.0899 12.8766 10.168 13.3106C10.2461 13.7447 9.97556 14.1634 9.5638 14.2457C9.05667 14.3471 8.53385 14.4 8.00001 14.4C4.26118 14.4 1.09832 11.8092 0.0348691 8.23969C-0.0116236 8.08363 -0.011623 7.91631 0.0348708 7.76025C0.324686 6.78749 0.770125 5.88801 1.33997 5.09419C1.59288 4.74187 2.06882 4.6724 2.40301 4.93902Z" fill="black" fill-opacity="0.5"/>
</svg>
